<svg width="269" height="146" viewBox="0 0 269 146" fill="none" xmlns="http://www.w3.org/2000/svg">
<path d="M102.224 18.803V17.3859L103.582 17.1267V7.90661L102.224 7.64737V6.22159H107.292V7.64737L105.934 7.90661V17.1267L107.292 17.3859V18.803H102.224ZM108.304 18.803V17.3859L109.558 17.1267V11.1384L108.209 10.8791V9.45337H111.737L111.85 10.8014C112.161 10.3232 112.547 9.95167 113.009 9.68667C113.476 9.41592 114.003 9.28053 114.592 9.28053C115.532 9.28053 116.267 9.57721 116.797 10.1706C117.333 10.7582 117.601 11.6828 117.601 12.9443V17.1267L118.855 17.3859V18.803H114.089V17.3859L115.24 17.1267V12.9617C115.24 12.2934 115.108 11.821 114.842 11.5445C114.577 11.2622 114.182 11.1211 113.657 11.1211C113.266 11.1211 112.922 11.2075 112.628 11.3804C112.34 11.5474 112.101 11.7864 111.911 12.0975V17.1267L113.018 17.3859V18.803H108.304ZM124.027 18.9845C123.139 18.9845 122.37 18.7858 121.718 18.3883C121.072 17.985 120.573 17.4291 120.222 16.7205C119.87 16.012 119.694 15.1968 119.694 14.275V13.9899C119.694 13.0797 119.87 12.2704 120.222 11.5618C120.578 10.8532 121.081 10.2973 121.726 9.89405C122.372 9.48504 123.133 9.28053 124.009 9.28053C124.834 9.28053 125.546 9.41015 126.146 9.66939C126.751 9.92862 127.241 10.2397 127.616 10.6026V13.195H125.834L125.506 11.5273C125.356 11.3775 125.166 11.2565 124.934 11.1644C124.704 11.0721 124.46 11.026 124.199 11.026C123.732 11.026 123.338 11.1499 123.015 11.3976C122.698 11.6395 122.456 11.9823 122.289 12.4259C122.127 12.8637 122.046 13.3851 122.046 13.9899V14.275C122.046 14.9261 122.133 15.4676 122.305 15.8996C122.479 16.3259 122.715 16.6457 123.015 16.8588C123.32 17.0719 123.66 17.1784 124.036 17.1784C124.508 17.1784 124.891 17.0547 125.186 16.8069C125.48 16.5534 125.676 16.1991 125.774 15.7441H127.788L127.815 15.7959C127.734 16.4296 127.547 16.9884 127.253 17.4723C126.965 17.9505 126.555 18.322 126.025 18.587C125.5 18.852 124.834 18.9845 124.027 18.9845ZM129.147 18.803V17.3859L130.401 17.1267V11.1384L129.051 10.8791V9.45337H132.58L132.683 10.6199L132.701 10.8187C132.938 10.3175 133.231 9.93727 133.583 9.67803C133.935 9.41304 134.351 9.28053 134.829 9.28053C134.984 9.28053 135.152 9.29495 135.33 9.32375C135.515 9.34679 135.67 9.37848 135.797 9.41879L135.53 11.5878L134.292 11.5186C133.918 11.5013 133.609 11.5704 133.368 11.726C133.131 11.8815 132.926 12.1033 132.753 12.3913V17.1267L134.007 17.3859V18.803H129.147ZM136.628 18.803V17.3859L137.882 17.1267V11.1384L136.524 10.8791V9.45337H140.234V17.1267L141.487 17.3859V18.803H136.628ZM137.796 7.40542V5.32292H140.234V7.40542H137.796ZM145.976 18.803L143.045 11.0347L142.041 10.8791V9.45337H146.452V10.8791L145.423 11.052L146.971 15.5194L147.187 16.2539H147.239L147.489 15.5194L149.116 11.052L147.948 10.8791V9.45337H152.35V10.8791L151.321 11.052L148.32 18.803H145.976ZM157.357 18.9845C156.469 18.9845 155.695 18.7887 155.031 18.3969C154.374 17.9994 153.864 17.455 153.5 16.7637C153.137 16.0666 152.956 15.2717 152.956 14.3788V14.0245C152.956 13.1086 153.129 12.2934 153.475 11.5791C153.826 10.859 154.316 10.2973 154.945 9.89405C155.573 9.48504 156.3 9.28053 157.124 9.28053C157.972 9.28053 158.683 9.45048 159.26 9.79036C159.837 10.1245 160.272 10.6055 160.566 11.2334C160.86 11.8614 161.007 12.6159 161.007 13.4974V14.8022H155.395L155.377 14.8541C155.4 15.3033 155.501 15.7037 155.68 16.0551C155.858 16.4008 156.11 16.6744 156.432 16.8761C156.755 17.0777 157.147 17.1784 157.609 17.1784C158.099 17.1784 158.545 17.1152 158.949 16.9884C159.359 16.8617 159.747 16.6744 160.117 16.4268L160.791 17.8871C160.416 18.1981 159.941 18.4603 159.364 18.6734C158.787 18.8808 158.119 18.9845 157.357 18.9845ZM155.42 13.2036H158.793V12.979C158.793 12.5872 158.735 12.2473 158.62 11.9593C158.505 11.6655 158.326 11.4379 158.085 11.2766C157.848 11.1154 157.539 11.0347 157.159 11.0347C156.813 11.0347 156.516 11.1297 156.268 11.3199C156.02 11.5041 155.824 11.7576 155.68 12.0803C155.536 12.3971 155.441 12.7572 155.395 13.1604L155.42 13.2036ZM162.08 18.803V17.3859L163.343 17.1267V7.00793L161.984 6.7487V5.32292H165.695V17.1267L166.957 17.3859V18.803H162.08Z" fill="#999591"/>
<path d="M269 22.9088H0V25.0899H269V22.9088Z" fill="#FF9000"/>
<path d="M39.9838 66.3922C39.1513 66.3922 38.4135 66.1907 37.7704 65.7874C37.1271 66.1907 36.528 66.3922 35.9731 66.3922C35.4307 66.3922 34.9831 66.3419 34.6298 66.241C34.2767 66.1528 33.9677 66.0267 33.7028 65.8629C33.1605 65.5353 32.8894 65.1257 32.8894 64.6343C32.8894 64.3822 32.9587 64.1617 33.0975 63.9727C33.3749 64.1869 33.7281 64.2941 34.1569 64.2941C35.2794 64.2941 36.0551 63.8152 36.4839 62.8574V53.6142C36.4839 53.0471 36.364 52.6124 36.1244 52.3099C35.746 51.8185 35.0965 51.3522 34.1758 50.9112C35.0208 50.5205 35.5757 50.1803 35.8407 49.8904C36.2695 49.399 36.4839 48.8508 36.4839 48.2459V40.2691C36.0551 39.2988 35.2794 38.8137 34.1569 38.8137C33.7281 38.8137 33.3749 38.9207 33.0975 39.135C32.9587 38.9459 32.8894 38.7317 32.8894 38.4922C32.8894 38.2403 32.9587 38.0071 33.0975 37.7929C33.2488 37.5786 33.4506 37.3959 33.7028 37.2447C34.283 36.8919 34.9452 36.7155 35.6893 36.7155C36.4461 36.7155 37.1397 36.9234 37.7704 37.3393C38.4262 36.9234 39.1577 36.7155 39.9649 36.7155C40.8477 36.7155 41.6171 36.9486 42.2729 37.4148C43.6729 36.8225 45.0665 36.5264 46.4539 36.5264C47.8413 36.5264 49.1025 36.665 50.2376 36.9423C51.3853 37.2069 52.4195 37.5849 53.3402 38.0765C55.3455 39.135 56.5942 40.5086 57.086 42.1971C57.3634 43.1296 57.9625 43.8228 58.8832 44.2764C57.8617 44.9822 57.231 45.7886 56.9914 46.6959C56.4617 48.687 55.3896 49.985 53.7753 50.5898C56.1464 51.2451 57.6914 52.7951 58.4103 55.2398C58.6625 56.1094 59.2616 56.8213 60.2075 57.3758C59.2363 57.9177 58.5869 58.7368 58.259 59.8331C57.931 60.9295 57.3508 61.9187 56.5184 62.8008C55.6986 63.6703 54.7401 64.3885 53.6428 64.9556C51.524 66.0393 49.134 66.5812 46.4728 66.5812C44.8836 66.5812 43.4648 66.2977 42.2162 65.7306C41.5603 66.1717 40.8162 66.3922 39.9838 66.3922ZM46.9836 49.6825C48.0934 49.6825 48.8817 49.4179 49.3483 48.8887C49.8403 48.3467 50.0861 47.4142 50.0861 46.0911V41.7246C50.0861 40.9559 49.6826 40.3069 48.8754 39.7776C48.1692 39.3114 47.5133 39.0782 46.908 39.0782C46.3152 39.0782 45.8232 39.1539 45.4322 39.3051C45.0538 39.4437 44.7133 39.639 44.4107 39.8911C43.7674 40.4203 43.4458 41.0567 43.4458 41.8002V49.6825H46.9836ZM51.1646 39.513C51.5933 40.4708 51.8077 41.8695 51.8077 43.7093C51.8077 46.4187 51.6312 48.1766 51.278 48.9831C51.8077 48.8823 52.2555 48.3719 52.6213 47.452C52.76 47.1118 52.8609 46.7526 52.9239 46.3746C52.9996 45.9965 53.0564 45.7067 53.0942 45.5051C53.1447 45.2909 53.2141 45.1081 53.3023 44.9569C53.4915 44.6418 53.832 44.4025 54.3239 44.2387C53.8194 44.0747 53.5041 43.8983 53.378 43.7093C53.2141 43.4952 53.0816 43.1045 52.9807 42.5374C52.8798 41.9704 52.76 41.5103 52.6213 41.1575C52.4826 40.7921 52.3311 40.496 52.1672 40.2691C51.8519 39.8154 51.5177 39.5635 51.1646 39.513ZM38.3001 61.005C38.9306 60.7656 39.2775 59.9402 39.3405 58.5289C39.4163 57.1174 39.4541 55.1642 39.4541 52.6691C39.4541 50.174 39.4478 48.5169 39.4352 47.6978C39.4352 46.866 39.4289 46.1982 39.4162 45.6941C39.3784 44.2071 39.2334 43.3123 38.9811 43.0099C38.7414 42.6949 38.5145 42.487 38.3001 42.3861C38.3001 46.7715 38.2243 49.2666 38.073 49.8715C37.8965 50.3756 37.4676 50.7348 36.7866 50.9489C37.5433 51.2136 37.9722 51.5349 38.073 51.913C38.2243 52.5179 38.3001 54.7294 38.3001 58.5478V61.005ZM43.4458 61.0807C43.4458 61.9627 43.78 62.6873 44.4485 63.2544C45.0917 63.7836 45.8611 64.0483 46.7565 64.0483C47.6268 64.0483 48.3583 63.8593 48.9511 63.4812C50.0861 62.7378 50.6537 61.8872 50.6537 60.9295V55.3911C50.6537 54.2443 50.2816 53.381 49.5375 52.8015C48.907 52.3099 48.0808 52.0642 47.0593 52.0642H43.4458V61.0807ZM51.9213 52.6501C52.224 53.3307 52.3753 54.9058 52.3753 57.3758C52.3753 60.501 52.2618 62.3345 52.0348 62.8763C52.2997 62.826 52.5708 62.5046 52.8483 61.9124C53.1257 61.3201 53.3212 60.7089 53.4348 60.0788C53.5483 59.4488 53.6239 59.0203 53.6617 58.7934C53.7122 58.5667 53.7816 58.365 53.8699 58.1886C54.0717 57.8106 54.4122 57.5396 54.8915 57.3758C54.1348 57.1363 53.687 56.6575 53.5483 55.9392C53.4222 55.221 53.296 54.6664 53.1699 54.2758C53.0438 53.8852 52.9113 53.5764 52.7726 53.3496C52.5329 52.9463 52.2492 52.7132 51.9213 52.6501ZM75.172 64.2184C74.0243 65.7306 72.3027 66.4867 70.0073 66.4867C67.2074 66.4867 65.1074 65.6487 63.7074 63.9727C63.1021 63.2544 62.6859 62.4543 62.4588 61.5721C62.3327 61.0428 62.112 60.6396 61.7967 60.3624C61.4813 60.0725 61.0903 59.8142 60.6237 59.5874C61.5318 59.1715 62.1814 58.3902 62.5723 57.2435C62.9885 56.0337 63.6822 55.1579 64.6533 54.6161C65.7002 54.049 66.8541 53.7528 68.1154 53.7277C69.3766 53.6898 70.31 53.6457 70.9154 53.5953C71.5207 53.545 72.0568 53.463 72.5234 53.3496C73.3936 53.148 74.0747 52.7762 74.5666 52.2344V49.399C74.5666 48.1514 74.308 47.2378 73.7909 46.6582C73.2864 46.0785 72.5108 45.7886 71.464 45.7886C70.4297 45.7886 69.6604 45.9839 69.1559 46.3746C68.6641 46.7526 68.4181 47.263 68.4181 47.9057C68.4181 48.8887 68.9226 49.3675 69.9316 49.3423C69.7298 50.3252 69.2001 50.8166 68.3424 50.8166C68.0902 50.8166 67.8442 50.7725 67.6046 50.6843V50.7411C67.6046 51.0687 67.756 51.2766 68.0587 51.3648C67.7434 51.8437 67.2137 52.0768 66.4696 52.0642C65.7254 52.0517 65.1453 51.6547 64.729 50.8734C64.5399 50.9238 64.3191 50.9489 64.0668 50.9489C63.8273 50.9489 63.5561 50.8671 63.2534 50.7033C62.9633 50.5395 62.73 50.3126 62.5535 50.0227C63.184 49.6446 63.5687 49.0588 63.7074 48.2648C63.8588 47.2945 64.6344 46.3115 66.0344 45.3161C67.7245 44.1189 69.8811 43.5203 72.5045 43.5203C76.8557 43.5203 79.5106 44.8561 80.4691 47.5276C80.7845 48.4223 80.9421 49.4808 80.9421 50.7033V52.2344C80.9421 52.8518 81.0934 53.3559 81.3961 53.7465C81.7115 54.1371 82.2412 54.4586 82.9853 54.7105C82.1907 55.076 81.6799 55.4037 81.4529 55.6935C81.1124 56.1346 80.9421 56.6386 80.9421 57.2057V62.8763C81.3078 63.8215 81.8312 64.2941 82.5123 64.2941C82.9411 64.2941 83.2942 64.1869 83.5718 63.9727C83.7483 64.2121 83.8366 64.5146 83.8366 64.8801C83.8366 65.2329 83.6537 65.5731 83.2879 65.9008C82.9348 66.2284 82.3988 66.3922 81.6799 66.3922C80.961 66.3922 80.2925 66.1907 79.6746 65.7874C79.1323 66.1907 78.6466 66.3922 78.2178 66.3922C77.8017 66.3922 77.4359 66.3482 77.1205 66.2599C76.8179 66.1843 76.534 66.0583 76.2692 65.8818C75.6764 65.4912 75.3107 64.9367 75.172 64.2184ZM76.3638 61.005C77.0953 60.7152 77.48 59.3227 77.5178 56.8276C77.5178 56.2984 77.5178 55.6935 77.5178 55.013C77.5178 54.3325 77.5115 53.7528 77.4989 53.274C77.4989 52.7825 77.4926 52.3162 77.48 51.8751C77.4296 50.2874 77.2845 49.3422 77.0449 49.0399C76.8053 48.7247 76.5782 48.5169 76.3638 48.416V61.005ZM69.383 59.663C69.383 60.1923 69.4398 60.7089 69.5532 61.2129C69.6667 61.7171 69.8369 62.1581 70.064 62.5361C70.5686 63.33 71.2811 63.727 72.2018 63.727C72.8955 63.727 73.4693 63.4434 73.9234 62.8763C74.3521 62.3219 74.5666 61.6099 74.5666 60.7404V54.5782C73.7594 55.0444 72.7252 55.3659 71.464 55.5423C70.0766 55.7565 69.383 57.13 69.383 59.663ZM66.5452 63.916C66.6713 63.8278 66.7344 63.7144 66.7344 63.5758C66.7344 63.3868 66.6461 63.1221 66.4696 62.7819C65.8389 61.6225 65.5236 60.6711 65.5236 59.9276C65.5236 59.1841 65.5488 58.6485 65.5992 58.3209C65.6623 57.9933 65.738 57.716 65.8263 57.4892C65.9271 57.2498 66.0344 57.0419 66.1479 56.8655C66.2741 56.689 66.3812 56.5314 66.4696 56.3928C66.6335 56.103 66.7154 55.9077 66.7154 55.8068C66.7154 55.6935 66.6588 55.5989 66.5452 55.5234C66.0281 55.7628 65.6497 56.0463 65.4101 56.3739C64.9813 56.9536 64.6659 57.7034 64.4641 58.6233C64.4138 58.888 63.9723 59.2093 63.1398 59.5874C63.9471 59.9528 64.3885 60.2741 64.4641 60.5514C64.893 62.051 65.5866 63.1725 66.5452 63.916ZM89.7202 65.7874C89.1401 66.1907 88.4779 66.3922 87.7337 66.3922C86.9896 66.3922 86.4473 66.2221 86.1068 65.8818C85.7789 65.529 85.6149 65.1951 85.6149 64.8801C85.6149 64.4642 85.6842 64.1617 85.8231 63.9727C86.1005 64.1869 86.4536 64.2941 86.8825 64.2941C87.6897 64.2941 88.2131 63.9034 88.4527 63.1221V57.3947C88.4527 56.815 88.3392 56.3865 88.1121 56.1094C87.7086 55.6178 87.0527 55.1516 86.1446 54.7105C87.6834 54.0048 88.4527 52.9211 88.4527 51.4594V49.4745C88.4527 48.4034 88.0869 47.8237 87.3554 47.7356C87.1411 47.7104 86.8698 47.6978 86.5419 47.6978C86.2141 47.6978 85.9113 47.8048 85.6339 48.0191C85.4573 47.7796 85.369 47.534 85.369 47.2819C85.369 47.0173 85.4321 46.7274 85.5582 46.4124C85.6969 46.0848 85.905 45.776 86.1825 45.4862C86.8383 44.8056 87.6013 44.4654 88.4716 44.4654C89.3545 44.4654 90.086 44.6041 90.6662 44.8813C91.3598 44.1 92.1039 43.7093 92.8985 43.7093C94.1345 43.7093 94.7525 44.3899 94.7525 45.7508V48.3404C96.0137 45.2404 98.0191 43.6904 100.769 43.6904C102.005 43.6904 103.007 44.0684 103.777 44.8245C104.571 45.5933 104.968 46.6582 104.968 48.0191V48.2838C104.968 48.3719 104.956 48.5546 104.931 48.8319C104.905 49.0965 104.912 49.3675 104.95 49.6446C105 49.9219 105.076 50.1488 105.177 50.3252C105.315 50.5898 105.574 50.7977 105.952 50.9489C105.864 51.2892 105.656 51.5979 105.328 51.8751C105.013 52.1398 104.659 52.2721 104.268 52.2721H103.909C103.417 52.8896 102.73 53.3244 101.847 53.5764C101.595 53.652 101.317 53.6898 101.014 53.6898C100.724 53.6898 100.466 53.6268 100.239 53.5008C100.024 53.3621 99.9046 53.2172 99.8794 53.066C100.119 52.9527 100.239 52.7258 100.239 52.3856V52.291C100.138 52.3162 100.05 52.3288 99.974 52.3288H99.7848C99.3686 52.3288 98.9902 52.1713 98.6497 51.8563C98.3218 51.5412 98.1074 51.1442 98.0064 50.6654C98.6876 50.6906 99.2803 50.4386 99.7848 49.9093C100.239 49.4431 100.466 48.9642 100.466 48.4728C100.466 47.3134 99.9614 46.7337 98.9524 46.7337C98.0822 46.7337 97.2056 47.4268 96.3227 48.813C95.4903 50.0857 94.967 51.4026 94.7525 52.7636V62.9898C94.8912 63.4308 95.1057 63.7585 95.3957 63.9727C95.6858 64.1869 96.0831 64.2941 96.5876 64.2941C97.0921 64.2941 97.483 64.1869 97.7606 63.9727C97.8993 64.1617 97.9686 64.439 97.9686 64.8044C97.9686 65.1699 97.7983 65.529 97.4578 65.8818C97.1299 66.2221 96.5687 66.3922 95.7741 66.3922C94.9921 66.3922 94.2417 66.178 93.5228 65.7496C93.0183 66.178 92.4066 66.3922 91.6877 66.3922C90.9688 66.3922 90.313 66.1907 89.7202 65.7874ZM91.3472 56.8276C91.3598 56.3991 91.3661 56.04 91.3661 55.7502C91.3787 55.4603 91.3851 55.2272 91.3851 55.0507V54.5404C91.3851 54.3514 91.3787 54.1119 91.3661 53.8221C91.3661 53.5197 91.3598 53.1857 91.3472 52.8203C91.3472 52.4422 91.3409 52.0768 91.3283 51.7239C91.2525 50.4134 91.1075 49.5754 90.8931 49.21C90.6913 48.8319 90.4833 48.5735 90.2689 48.4349V49.6636C90.2689 51.7807 90.2184 53.0282 90.1175 53.4062C90.0292 53.7717 89.8779 54.049 89.6635 54.238C89.4616 54.4144 89.159 54.5719 88.7554 54.7105C89.5121 54.9752 89.941 55.2965 90.0418 55.6746C90.1931 56.2795 90.2689 57.6405 90.2689 59.7575V60.9862C90.849 60.6081 91.1769 59.8394 91.2525 58.6801C91.3156 57.8609 91.3472 57.2435 91.3472 56.8276ZM115.298 64.6911C113.923 65.8252 112.523 66.3922 111.098 66.3922C109.824 66.3922 109.042 66.2284 108.752 65.9008C109.03 65.5605 109.181 65.0502 109.206 64.3696C109.231 63.6892 109.244 63.0528 109.244 62.4606V57.2057C109.244 56.6512 109.124 56.2479 108.885 55.9959C108.544 55.6052 107.894 55.1768 106.936 54.7105C107.819 54.3072 108.38 53.9859 108.62 53.7465C109.036 53.3307 109.244 52.8266 109.244 52.2344V41.5356C109.244 40.099 108.658 39.3807 107.485 39.3807C107.056 39.3807 106.703 39.4878 106.425 39.702C106.249 39.4626 106.16 39.2168 106.16 38.9649C106.16 38.7002 106.223 38.4482 106.349 38.2088C106.488 37.9693 106.69 37.7487 106.955 37.5471C107.56 37.1187 108.317 36.9045 109.225 36.9045C110.133 36.9045 110.846 36.9612 111.363 37.0746C112.12 36.2051 112.895 35.7703 113.69 35.7703C114.989 35.7703 115.638 36.4508 115.638 37.8118V45.9021C116.61 44.9317 117.908 44.2575 119.536 43.8794C120.027 43.766 120.665 43.7093 121.446 43.7093C122.228 43.7093 123.048 43.8228 123.906 44.0496C124.763 44.2764 125.508 44.6797 126.138 45.2593C127.4 46.4187 128.175 48.4854 128.465 51.4594C128.591 53.0093 129.36 54.1056 130.773 54.7483C129.877 55.1894 129.31 55.5612 129.07 55.8636C128.743 56.2921 128.541 56.8024 128.465 57.3947C128.099 60.4317 127.318 62.6747 126.119 64.124C124.807 65.6991 122.91 66.4867 120.425 66.4867C119.15 66.4867 117.84 66.1402 116.489 65.4472C116.049 65.2329 115.651 64.9808 115.298 64.6911ZM113.822 42.3861C113.305 42.6256 112.99 43.0793 112.876 43.7471C112.738 44.5789 112.668 45.9524 112.668 47.8679V50.7788V51.3837C112.681 52.0642 112.693 52.9904 112.707 54.1624C112.719 55.3217 112.731 56.2164 112.744 56.8465C112.769 58.2074 112.807 59.0707 112.857 59.4362C112.908 59.8016 113.021 60.1355 113.198 60.4379C113.387 60.7278 113.595 60.9168 113.822 61.005V42.3861ZM115.638 60.0222C115.638 61.0428 115.985 61.9187 116.678 62.6496C117.335 63.3679 118.079 63.727 118.911 63.727C121.018 63.727 122.071 62.2148 122.071 59.1904V50.9112C122.071 48.542 121.522 47.137 120.425 46.6959C120.071 46.5447 119.674 46.4691 119.233 46.4691C117.618 46.4691 116.528 47.2441 115.96 48.7941C115.745 49.3612 115.638 50.0668 115.638 50.9112V60.0222ZM123.887 61.005C124.517 60.7656 124.865 59.9402 124.928 58.5289C125.003 57.1174 125.041 56.0715 125.041 55.3911C125.041 54.6979 125.034 54.1245 125.022 53.6709C125.022 53.2046 125.015 52.7258 125.003 52.2344C124.952 50.3944 124.807 49.3233 124.568 49.0209C124.328 48.7184 124.101 48.5169 123.887 48.416V61.005ZM149.805 60.3056C150.082 59.7764 150.594 59.5117 151.337 59.5117C151.842 59.5117 152.233 59.7196 152.511 60.1355C152.738 60.4631 152.851 60.8664 152.851 61.3453C152.851 61.8115 152.731 62.2842 152.491 62.763C152.252 63.2418 151.924 63.6766 151.508 64.0672C151.092 64.4579 150.612 64.8044 150.07 65.1068C149.54 65.4093 148.973 65.6613 148.367 65.8629C147.119 66.2788 145.819 66.4867 144.47 66.4867C143.12 66.4867 141.853 66.2662 140.667 65.8252C139.495 65.3715 138.485 64.7414 137.641 63.935C135.988 62.3471 134.979 60.167 134.614 57.3947C134.525 56.7772 134.38 56.3362 134.179 56.0715C133.8 55.6052 133.176 55.1579 132.306 54.7294C133.403 54.238 134.103 53.4504 134.406 52.3667C134.493 52.0642 134.563 51.7618 134.614 51.4594C134.928 49.2415 136.051 47.3512 137.981 45.7886C139.848 44.2764 141.935 43.5203 144.243 43.5203C146.639 43.5203 148.714 44.3646 150.467 46.0533C152.283 47.7922 153.192 49.9282 153.192 52.4611C153.192 52.5494 153.185 52.6375 153.173 52.7258C153.173 52.814 153.178 52.8959 153.192 52.9716C153.217 53.1354 153.318 53.2298 153.494 53.2551C153.721 53.5449 153.835 53.8537 153.835 54.1813C153.835 54.9374 153.431 55.3848 152.624 55.5234C152.422 55.5612 152.107 55.6115 151.678 55.6746L141.008 57.3758V59.1904C141.008 60.6522 141.45 61.8115 142.332 62.6684C143.164 63.4876 144.218 63.8971 145.491 63.8971C146.841 63.8971 147.926 63.6198 148.746 63.0654C149.515 62.5361 149.899 61.8431 149.899 60.9862C149.899 60.7846 149.868 60.5577 149.805 60.3056ZM146.494 54.2002V48.9075C146.494 48.0758 146.33 47.4646 146.003 47.0739C145.423 46.4061 144.848 46.0722 144.28 46.0722C143.714 46.0722 143.241 46.1603 142.862 46.3368C142.484 46.5006 142.156 46.7652 141.878 47.1307C141.298 47.8994 141.008 49.0965 141.008 50.7222V55.0886L146.494 54.2002ZM149.294 53.7277V53.1417C149.294 50.7977 149.099 49.3801 148.708 48.8887C148.531 48.6744 148.335 48.5169 148.122 48.416V53.9167L149.294 53.7277ZM137.924 61.005C138.101 60.8664 138.19 60.7089 138.19 60.5325C138.19 60.2552 138.132 59.9024 138.019 59.474C137.502 57.4955 137.243 56.122 137.243 55.3532C137.243 54.5719 137.269 53.967 137.318 53.5386C137.369 53.0975 137.439 52.6565 137.527 52.2155C137.678 51.3585 137.842 50.6024 138.019 49.9472C138.132 49.5187 138.19 49.2289 138.19 49.0777C138.19 48.7752 138.101 48.5546 137.924 48.416C137.395 49.0462 136.991 49.8904 136.714 50.9489C136.436 52.0075 136.209 52.94 136.032 53.7465C135.969 54.0868 135.597 54.4144 134.916 54.7294C135.597 55.0444 135.969 55.3596 136.032 55.6746C136.499 57.8043 136.883 59.1589 137.187 59.7386C137.489 60.3182 137.735 60.7404 137.924 61.005ZM169.536 64.2184C168.39 65.7306 166.667 66.4867 164.372 66.4867C161.573 66.4867 159.473 65.6487 158.072 63.9727C157.467 63.2544 157.051 62.4543 156.824 61.5721C156.697 61.0428 156.477 60.6396 156.162 60.3624C155.846 60.0725 155.455 59.8142 154.988 59.5874C155.897 59.1715 156.546 58.3902 156.938 57.2435C157.354 56.0337 158.047 55.1579 159.018 54.6161C160.065 54.049 161.22 53.7528 162.48 53.7277C163.741 53.6898 164.674 53.6457 165.28 53.5953C165.886 53.545 166.421 53.463 166.888 53.3496C167.759 53.148 168.439 52.7762 168.932 52.2344V49.399C168.932 48.1514 168.673 47.2378 168.156 46.6582C167.651 46.0785 166.875 45.7886 165.829 45.7886C164.795 45.7886 164.026 45.9839 163.521 46.3746C163.029 46.7526 162.783 47.263 162.783 47.9057C162.783 48.8887 163.287 49.3675 164.297 49.3423C164.094 50.3252 163.565 50.8166 162.707 50.8166C162.455 50.8166 162.209 50.7725 161.969 50.6843V50.7411C161.969 51.0687 162.121 51.2766 162.424 51.3648C162.108 51.8437 161.578 52.0768 160.834 52.0642C160.09 52.0517 159.51 51.6547 159.094 50.8734C158.905 50.9238 158.685 50.9489 158.432 50.9489C158.192 50.9489 157.921 50.8671 157.618 50.7033C157.328 50.5395 157.095 50.3126 156.918 50.0227C157.549 49.6446 157.934 49.0588 158.072 48.2648C158.224 47.2945 158.999 46.3115 160.399 45.3161C162.09 44.1189 164.246 43.5203 166.87 43.5203C171.22 43.5203 173.876 44.8561 174.835 47.5276C175.149 48.4223 175.307 49.4808 175.307 50.7033V52.2344C175.307 52.8518 175.459 53.3559 175.761 53.7465C176.077 54.1371 176.606 54.4586 177.351 54.7105C176.556 55.076 176.044 55.4037 175.818 55.6935C175.478 56.1346 175.307 56.6386 175.307 57.2057V62.8763C175.673 63.8215 176.196 64.2941 176.877 64.2941C177.306 64.2941 177.66 64.1869 177.936 63.9727C178.113 64.2121 178.202 64.5146 178.202 64.8801C178.202 65.2329 178.018 65.5731 177.653 65.9008C177.3 66.2284 176.764 66.3922 176.044 66.3922C175.326 66.3922 174.657 66.1907 174.04 65.7874C173.497 66.1907 173.011 66.3922 172.583 66.3922C172.167 66.3922 171.801 66.3482 171.486 66.2599C171.183 66.1843 170.899 66.0583 170.635 65.8818C170.041 65.4912 169.676 64.9367 169.536 64.2184ZM170.729 61.005C171.46 60.7152 171.844 59.3227 171.883 56.8276C171.883 56.2984 171.883 55.6935 171.883 55.013C171.883 54.3325 171.877 53.7528 171.863 53.274C171.863 52.7825 171.858 52.3162 171.844 51.8751C171.795 50.2874 171.65 49.3422 171.409 49.0399C171.17 48.7247 170.943 48.5169 170.729 48.416V61.005ZM163.748 59.663C163.748 60.1923 163.804 60.7089 163.918 61.2129C164.031 61.7171 164.202 62.1581 164.429 62.5361C164.934 63.33 165.646 63.727 166.566 63.727C167.26 63.727 167.834 63.4434 168.288 62.8763C168.717 62.3219 168.932 61.6099 168.932 60.7404V54.5782C168.124 55.0444 167.09 55.3659 165.829 55.5423C164.442 55.7565 163.748 57.13 163.748 59.663ZM160.91 63.916C161.036 63.8278 161.099 63.7144 161.099 63.5758C161.099 63.3868 161.011 63.1221 160.834 62.7819C160.203 61.6225 159.889 60.6711 159.889 59.9276C159.889 59.1841 159.913 58.6485 159.964 58.3209C160.027 57.9933 160.103 57.716 160.191 57.4892C160.292 57.2498 160.399 57.0419 160.513 56.8655C160.638 56.689 160.746 56.5314 160.834 56.3928C160.998 56.103 161.08 55.9077 161.08 55.8068C161.08 55.6935 161.024 55.5989 160.91 55.5234C160.393 55.7628 160.015 56.0463 159.775 56.3739C159.347 56.9536 159.031 57.7034 158.83 58.6233C158.779 58.888 158.337 59.2093 157.504 59.5874C158.311 59.9528 158.753 60.2741 158.83 60.5514C159.258 62.051 159.952 63.1725 160.91 63.916ZM184.086 65.7874C183.504 66.1907 182.843 66.3922 182.099 66.3922C181.355 66.3922 180.812 66.2221 180.471 65.8818C180.144 65.529 179.98 65.1951 179.98 64.8801C179.98 64.4642 180.05 64.1617 180.188 63.9727C180.466 64.1869 180.819 64.2941 181.247 64.2941C182.054 64.2941 182.578 63.9034 182.817 63.1221V57.3947C182.817 56.815 182.704 56.3865 182.477 56.1094C182.073 55.6178 181.418 55.1516 180.51 54.7105C182.049 54.0048 182.817 52.9211 182.817 51.4594V49.4745C182.817 48.4034 182.452 47.8237 181.72 47.7356C181.506 47.7104 181.235 47.6978 180.906 47.6978C180.579 47.6978 180.276 47.8048 179.999 48.0191C179.823 47.7796 179.734 47.534 179.734 47.2819C179.734 47.0173 179.797 46.7274 179.923 46.4124C180.062 46.0848 180.27 45.776 180.548 45.4862C181.203 44.8056 181.966 44.4654 182.837 44.4654C183.719 44.4654 184.451 44.6041 185.031 44.8813C185.725 44.1 186.469 43.7093 187.264 43.7093C188.499 43.7093 189.117 44.3899 189.117 45.7508V48.3404C190.379 45.2404 192.384 43.6904 195.133 43.6904C196.37 43.6904 197.372 44.0684 198.141 44.8245C198.936 45.5933 199.333 46.6582 199.333 48.0191V48.2838C199.333 48.3719 199.321 48.5546 199.296 48.8319C199.27 49.0965 199.277 49.3675 199.315 49.6446C199.364 49.9219 199.441 50.1488 199.542 50.3252C199.68 50.5898 199.939 50.7977 200.318 50.9489C200.229 51.2892 200.021 51.5979 199.693 51.8751C199.378 52.1398 199.025 52.2721 198.634 52.2721H198.274C197.783 52.8896 197.095 53.3244 196.212 53.5764C195.959 53.652 195.683 53.6898 195.379 53.6898C195.089 53.6898 194.831 53.6268 194.603 53.5008C194.39 53.3621 194.27 53.2172 194.245 53.066C194.484 52.9527 194.603 52.7258 194.603 52.3856V52.291C194.503 52.3162 194.415 52.3288 194.339 52.3288H194.149C193.733 52.3288 193.356 52.1713 193.015 51.8563C192.687 51.5412 192.472 51.1442 192.372 50.6654C193.052 50.6906 193.646 50.4386 194.149 49.9093C194.603 49.4431 194.831 48.9642 194.831 48.4728C194.831 47.3134 194.326 46.7337 193.317 46.7337C192.447 46.7337 191.57 47.4268 190.688 48.813C189.855 50.0857 189.332 51.4026 189.117 52.7636V62.9898C189.256 63.4308 189.47 63.7585 189.76 63.9727C190.051 64.1869 190.448 64.2941 190.952 64.2941C191.457 64.2941 191.848 64.1869 192.126 63.9727C192.264 64.1617 192.334 64.439 192.334 64.8044C192.334 65.1699 192.163 65.529 191.822 65.8818C191.495 66.2221 190.934 66.3922 190.139 66.3922C189.357 66.3922 188.607 66.178 187.888 65.7496C187.383 66.178 186.771 66.3922 186.053 66.3922C185.333 66.3922 184.678 66.1907 184.086 65.7874ZM185.712 56.8276C185.725 56.3991 185.731 56.04 185.731 55.7502C185.744 55.4603 185.749 55.2272 185.749 55.0507V54.5404C185.749 54.3514 185.744 54.1119 185.731 53.8221C185.731 53.5197 185.725 53.1857 185.712 52.8203C185.712 52.4422 185.706 52.0768 185.693 51.7239C185.618 50.4134 185.473 49.5754 185.258 49.21C185.057 48.8319 184.848 48.5735 184.634 48.4349V49.6636C184.634 51.7807 184.584 53.0282 184.482 53.4062C184.395 53.7717 184.243 54.049 184.028 54.238C183.827 54.4144 183.524 54.5719 183.12 54.7105C183.878 54.9752 184.306 55.2965 184.407 55.6746C184.558 56.2795 184.634 57.6405 184.634 59.7575V60.9862C185.214 60.6081 185.541 59.8394 185.618 58.6801C185.681 57.8609 185.712 57.2435 185.712 56.8276ZM206.826 41.0063C206.181 41.0063 205.557 40.8362 204.953 40.496C204.359 40.1556 203.905 39.702 203.59 39.135C203.25 38.5553 202.795 38.1142 202.228 37.8118C202.051 37.7236 201.85 37.6291 201.623 37.5283L202.266 37.1313C202.871 36.7533 203.319 36.2933 203.609 35.7514C203.899 35.2096 204.334 34.7874 204.914 34.485C205.507 34.17 206.144 34.0124 206.826 34.0124C208.238 34.0124 209.259 34.6047 209.89 35.7892C210.318 36.5706 210.981 37.1503 211.876 37.5283C211.688 37.6417 211.498 37.7424 211.309 37.8307C211.132 37.9189 210.961 38.0197 210.797 38.1331C210.432 38.3852 210.105 38.7569 209.814 39.2483C209.537 39.7399 209.127 40.1556 208.585 40.496C208.054 40.8362 207.469 41.0063 206.826 41.0063ZM205.823 38.7002C205.746 38.5616 205.683 38.4041 205.633 38.2277C205.596 38.0386 205.577 37.711 205.577 37.2447C205.577 36.7785 205.816 36.1862 206.295 35.4679C205.828 35.4679 205.5 35.5561 205.311 35.7325C205.122 35.8963 204.977 36.0413 204.876 36.1673C204.788 36.2807 204.706 36.4005 204.63 36.5264C204.567 36.6398 204.485 36.7659 204.385 36.9045C204.144 37.2447 203.95 37.4526 203.798 37.5283C203.999 37.6417 204.183 37.8244 204.347 38.0765C204.523 38.3158 204.726 38.5679 204.953 38.8326C205.292 39.2483 205.741 39.4563 206.295 39.4563C206.22 39.3177 206.138 39.1917 206.05 39.0782C205.973 38.9522 205.898 38.8263 205.823 38.7002ZM204.934 65.7874C204.353 66.1907 203.691 66.3922 202.947 66.3922C202.215 66.3922 201.667 66.2284 201.301 65.9008C200.947 65.5731 200.771 65.2581 200.771 64.9556C200.771 64.5397 200.86 64.2121 201.036 63.9727C201.314 64.1869 201.723 64.2941 202.266 64.2941C202.808 64.2941 203.274 63.9413 203.665 63.2355V57.2057C203.665 56.6512 203.552 56.2479 203.325 55.9959C202.959 55.6178 202.303 55.1957 201.358 54.7294C202.24 54.3262 202.802 54.0048 203.042 53.7654C203.458 53.3496 203.665 52.8392 203.665 52.2344V49.4745C203.665 48.4034 203.3 47.8237 202.568 47.7356C202.354 47.7104 202.083 47.6978 201.754 47.6978C201.427 47.6978 201.125 47.8048 200.847 48.0191C200.671 47.7796 200.582 47.534 200.582 47.2819C200.582 47.0173 200.645 46.7274 200.771 46.4124C200.91 46.0848 201.118 45.776 201.396 45.4862C202.051 44.8056 202.808 44.4654 203.665 44.4654C204.523 44.4654 205.299 44.6166 205.993 44.9191C206.611 44.1126 207.317 43.7093 208.112 43.7093C209.41 43.7093 210.06 44.3899 210.06 45.7508V52.2344C210.06 52.8392 210.192 53.274 210.458 53.5386C210.848 53.9292 211.485 54.3262 212.368 54.7294C211.422 55.1957 210.83 55.5486 210.589 55.7879C210.236 56.1786 210.06 56.6512 210.06 57.2057V63.2922C210.476 63.9602 210.949 64.2941 211.479 64.2941C212.009 64.2941 212.413 64.1869 212.689 63.9727C212.866 64.2121 212.955 64.5146 212.955 64.8801C212.955 65.2329 212.771 65.5731 212.406 65.9008C212.053 66.2284 211.517 66.3922 210.797 66.3922C210.079 66.3922 209.41 66.1907 208.793 65.7874C208.276 66.1907 207.651 66.3922 206.92 66.3922C206.188 66.3922 205.526 66.1907 204.934 65.7874ZM206.56 56.8276C206.573 56.3991 206.579 56.04 206.579 55.7502C206.592 55.4603 206.598 55.2272 206.598 55.0507V54.5404C206.598 54.3514 206.592 54.1056 206.579 53.8032C206.579 53.5008 206.573 53.1669 206.56 52.8015C206.56 52.4359 206.554 52.0768 206.541 51.7239C206.491 50.8545 206.428 50.2559 206.352 49.9282C206.201 49.1974 205.91 48.6933 205.482 48.416V49.6446C205.482 51.7744 205.432 53.0282 205.33 53.4062C205.243 53.7717 205.091 54.049 204.876 54.238C204.675 54.4144 204.372 54.5719 203.968 54.7105C204.726 54.9752 205.154 55.2965 205.255 55.6746C205.406 56.2795 205.482 57.6467 205.482 59.7764V61.005C206.062 60.6269 206.389 59.852 206.466 58.6801C206.529 57.8735 206.56 57.2561 206.56 56.8276ZM228.184 64.2184C227.036 65.7306 225.315 66.4867 223.019 66.4867C220.219 66.4867 218.119 65.6487 216.719 63.9727C216.114 63.2544 215.698 62.4543 215.471 61.5721C215.345 61.0428 215.124 60.6396 214.808 60.3624C214.494 60.0725 214.102 59.8142 213.636 59.5874C214.544 59.1715 215.193 58.3902 215.584 57.2435C216 56.0337 216.694 55.1579 217.665 54.6161C218.712 54.049 219.866 53.7528 221.127 53.7277C222.389 53.6898 223.322 53.6457 223.928 53.5953C224.533 53.545 225.069 53.463 225.535 53.3496C226.405 53.148 227.087 52.7762 227.578 52.2344V49.399C227.578 48.1514 227.32 47.2378 226.802 46.6582C226.299 46.0785 225.523 45.7886 224.476 45.7886C223.442 45.7886 222.672 45.9839 222.167 46.3746C221.676 46.7526 221.43 47.263 221.43 47.9057C221.43 48.8887 221.935 49.3675 222.943 49.3423C222.742 50.3252 222.212 50.8166 221.355 50.8166C221.103 50.8166 220.856 50.7725 220.617 50.6843V50.7411C220.617 51.0687 220.768 51.2766 221.07 51.3648C220.755 51.8437 220.226 52.0768 219.482 52.0642C218.737 52.0517 218.157 51.6547 217.741 50.8734C217.551 50.9238 217.331 50.9489 217.079 50.9489C216.839 50.9489 216.568 50.8671 216.265 50.7033C215.975 50.5395 215.742 50.3126 215.565 50.0227C216.196 49.6446 216.58 49.0588 216.719 48.2648C216.87 47.2945 217.646 46.3115 219.047 45.3161C220.736 44.1189 222.893 43.5203 225.516 43.5203C229.868 43.5203 232.522 44.8561 233.481 47.5276C233.796 48.4223 233.954 49.4808 233.954 50.7033V52.2344C233.954 52.8518 234.105 53.3559 234.407 53.7465C234.723 54.1371 235.253 54.4586 235.997 54.7105C235.202 55.076 234.692 55.4037 234.465 55.6935C234.124 56.1346 233.954 56.6386 233.954 57.2057V62.8763C234.32 63.8215 234.844 64.2941 235.524 64.2941C235.953 64.2941 236.306 64.1869 236.584 63.9727C236.76 64.2121 236.848 64.5146 236.848 64.8801C236.848 65.2329 236.666 65.5731 236.299 65.9008C235.946 66.2284 235.41 66.3922 234.692 66.3922C233.972 66.3922 233.305 66.1907 232.686 65.7874C232.144 66.1907 231.659 66.3922 231.229 66.3922C230.813 66.3922 230.448 66.3482 230.132 66.2599C229.83 66.1843 229.546 66.0583 229.281 65.8818C228.689 65.4912 228.322 64.9367 228.184 64.2184ZM229.376 61.005C230.107 60.7152 230.492 59.3227 230.53 56.8276C230.53 56.2984 230.53 55.6935 230.53 55.013C230.53 54.3325 230.523 53.7528 230.511 53.274C230.511 52.7825 230.504 52.3162 230.492 51.8751C230.441 50.2874 230.296 49.3422 230.057 49.0399C229.817 48.7247 229.59 48.5169 229.376 48.416V61.005ZM222.394 59.663C222.394 60.1923 222.452 60.7089 222.565 61.2129C222.679 61.7171 222.849 62.1581 223.076 62.5361C223.58 63.33 224.293 63.727 225.214 63.727C225.907 63.727 226.481 63.4434 226.935 62.8763C227.364 62.3219 227.578 61.6099 227.578 60.7404V54.5782C226.771 55.0444 225.738 55.3659 224.476 55.5423C223.088 55.7565 222.394 57.13 222.394 59.663ZM219.557 63.916C219.683 63.8278 219.746 63.7144 219.746 63.5758C219.746 63.3868 219.658 63.1221 219.482 62.7819C218.851 61.6225 218.535 60.6711 218.535 59.9276C218.535 59.1841 218.561 58.6485 218.611 58.3209C218.674 57.9933 218.75 57.716 218.839 57.4892C218.939 57.2498 219.047 57.0419 219.16 56.8655C219.286 56.689 219.393 56.5314 219.482 56.3928C219.646 56.103 219.728 55.9077 219.728 55.8068C219.728 55.6935 219.671 55.5989 219.557 55.5234C219.04 55.7628 218.662 56.0463 218.422 56.3739C217.993 56.9536 217.677 57.7034 217.476 58.6233C217.426 58.888 216.984 59.2093 216.152 59.5874C216.959 59.9528 217.401 60.2741 217.476 60.5514C217.904 62.051 218.598 63.1725 219.557 63.916Z" fill="white"/>
<path d="M91.7539 93.6393C91.9809 94.1938 92.4412 94.723 93.135 95.2271C92.6935 95.4035 92.1386 95.8194 91.4701 96.4746C90.8143 97.1299 90.0765 97.7159 89.2566 98.2326C88.4369 98.7492 87.6234 99.1651 86.8162 99.4801C85.3531 100.06 83.7704 100.35 82.0677 100.35C80.3776 100.35 78.8389 100.148 77.4516 99.7448C76.0768 99.3415 74.9354 98.7933 74.0274 98.1003C72.2491 96.7267 71.3598 94.8994 71.3598 92.6185V87.3826C71.3598 86.8029 71.2401 86.3745 71.0004 86.0972C70.622 85.631 69.9725 85.171 69.0519 84.7174C69.9094 84.3267 70.4644 83.9802 70.7167 83.6777C71.1455 83.1863 71.3598 82.6318 71.3598 82.0143V74.0375C70.9311 73.0671 70.1554 72.582 69.0329 72.582C68.6041 72.582 68.2509 72.6891 67.9735 72.9033C67.8347 72.7143 67.7654 72.5001 67.7654 72.2607C67.7654 72.0086 67.8347 71.7755 67.9735 71.5612C68.1249 71.347 68.3267 71.1643 68.5788 71.0131C69.159 70.6602 69.8212 70.4838 70.5653 70.4838C71.3221 70.4838 72.0157 70.6918 72.6464 71.1076C73.3022 70.6918 74.0337 70.4838 74.8409 70.4838C75.648 70.4838 76.3795 70.6918 77.0354 71.1076C77.6661 70.6918 78.2587 70.4838 78.8137 70.4838C79.3686 70.4838 79.8227 70.5343 80.1758 70.635C80.529 70.7233 80.838 70.8493 81.1028 71.0131C81.6452 71.3408 81.9164 71.7503 81.9164 72.2418C81.9164 72.4938 81.847 72.7143 81.7082 72.9033C81.4307 72.6891 81.0776 72.582 80.6489 72.582C79.5264 72.582 78.7507 73.0671 78.3218 74.0375V82.0143C78.3218 82.6318 78.4542 83.0917 78.7191 83.3942C79.1354 83.8856 79.7722 84.3267 80.6299 84.7174C79.7092 85.171 79.1227 85.5427 78.8705 85.8326C78.5047 86.2862 78.3218 86.8029 78.3218 87.3826V92.6564C78.3218 94.1812 78.8957 95.435 80.0434 96.418C81.1028 97.3127 82.3074 97.7601 83.6568 97.7601C85.0694 97.7601 86.3243 97.3253 87.4216 96.4558C88.5441 95.5736 89.1053 94.5025 89.1053 93.2423V87.2124C89.1053 86.658 88.9855 86.2484 88.7459 85.9838C88.3801 85.5932 87.7306 85.171 86.7973 84.7174C87.6675 84.2889 88.2288 83.9424 88.4811 83.6777C88.8972 83.2367 89.1053 82.7452 89.1053 82.2033V73.7917C88.563 72.9853 87.9009 72.582 87.1189 72.582C86.3369 72.582 85.7631 72.6891 85.3973 72.9033C85.2586 72.6765 85.1892 72.3678 85.1892 71.9771C85.1892 71.5739 85.3847 71.2273 85.7757 70.9375C86.1667 70.635 86.6774 70.4838 87.3081 70.4838C87.9386 70.4838 88.4999 70.6476 88.9918 70.9753C89.4332 70.6476 89.9378 70.4838 90.5053 70.4838C91.0855 70.4838 91.5963 70.6539 92.0376 70.9942C92.5296 70.6539 93.0719 70.4838 93.6647 70.4838C94.2575 70.4838 94.7304 70.6413 95.0835 70.9564C95.4493 71.2588 95.6322 71.6117 95.6322 72.0149C95.6322 72.4182 95.5691 72.7143 95.443 72.9033C95.0772 72.6891 94.4907 72.582 93.6836 72.582C92.889 72.582 92.2457 72.9853 91.7539 73.7917V82.2033C91.7539 82.7578 91.8737 83.161 92.1133 83.4131C92.4917 83.8038 93.2043 84.2385 94.2512 84.7174C93.1412 85.2592 92.4791 85.6373 92.2647 85.8515C91.9242 86.1918 91.7539 86.6454 91.7539 87.2124V93.6393ZM74.1598 94.7735C74.2733 94.0929 74.33 91.9129 74.33 88.2332C74.33 84.541 74.3238 82.2853 74.3112 81.4661C74.3112 80.6345 74.3049 79.9665 74.2923 79.4625C74.2544 77.9755 74.1094 77.0808 73.8571 76.7783C73.6174 76.4633 73.3905 76.2554 73.1761 76.1546C73.1761 80.5399 73.1004 83.0351 72.949 83.6399C72.7725 84.144 72.3436 84.5031 71.6626 84.7174C72.4193 84.982 72.8481 85.3034 72.949 85.6813C73.1004 86.2862 73.1761 87.5905 73.1761 89.5941C73.1761 91.5979 73.2013 92.7823 73.2517 93.1478C73.3148 93.5132 73.3967 93.8094 73.4977 94.0363C73.6616 94.4394 73.8823 94.6852 74.1598 94.7735ZM106.945 99.5747C106.29 99.9653 105.533 100.161 104.675 100.161C103.83 100.161 103.086 99.959 102.443 99.5557C101.8 99.959 101.2 100.161 100.646 100.161C100.103 100.161 99.6555 100.11 99.3023 100.009C98.9492 99.9212 98.6465 99.7952 98.3942 99.6314C97.8393 99.3037 97.5619 98.8941 97.5619 98.4027C97.5619 98.1506 97.6312 97.9302 97.77 97.7411C98.0474 97.9554 98.4005 98.0625 98.8294 98.0625C99.9519 98.0625 100.728 97.5836 101.156 96.6259V87.3636C101.156 86.7966 101.043 86.3745 100.816 86.0972C100.425 85.631 99.769 85.171 98.8483 84.7174C99.7059 84.3267 100.261 83.9802 100.513 83.6777C100.942 83.1863 101.156 82.6318 101.156 82.0143V74.0375C100.728 73.0671 99.9519 72.582 98.8294 72.582C98.3123 72.582 97.915 72.6891 97.6375 72.9033C97.4988 72.7143 97.4294 72.5001 97.4294 72.2607C97.4294 72.0086 97.5051 71.7755 97.6564 71.5612C97.8204 71.347 98.0411 71.1643 98.3186 71.0131C98.9114 70.6602 99.5861 70.4838 100.343 70.4838C101.112 70.4838 101.812 70.6918 102.443 71.1076C103.099 70.6918 103.849 70.4838 104.694 70.4838C105.552 70.4838 106.327 70.7359 107.021 71.2399C108.421 70.7359 110.086 70.4838 112.016 70.4838C113.239 70.4838 114.285 70.6098 115.156 70.8619L116.783 71.3156C116.985 71.3659 117.18 71.3911 117.369 71.3911C117.722 71.3911 117.899 71.1392 117.899 70.635C117.899 70.509 117.855 70.2948 117.767 69.9924C118.12 69.9294 118.567 69.8978 119.109 69.8978C119.652 69.8978 120.112 70.0806 120.491 70.446C120.87 70.7988 121.059 71.3282 121.059 72.0339C121.059 72.7269 120.919 73.2625 120.643 73.6405C121.02 74.2202 121.209 74.9007 121.209 75.682C121.209 76.4633 120.958 77.1374 120.453 77.7045C120.617 78.1078 120.699 78.5174 120.699 78.9332C120.699 79.3365 120.643 79.6957 120.529 80.0107C120.416 80.3257 120.271 80.5903 120.094 80.8046C119.74 81.233 119.318 81.4472 118.826 81.4472C118.384 81.4472 117.963 81.3401 117.559 81.1259C117.722 80.7857 117.804 80.3824 117.804 79.9161C117.804 79.4373 117.779 79.0403 117.729 78.7253C117.691 78.3977 117.628 78.0574 117.54 77.7045C117.363 76.9107 117.067 76.1294 116.651 75.3607C115.818 73.8106 114.513 73.0356 112.734 73.0356C110.527 73.0356 108.988 73.609 108.118 74.7558V83.4887C108.522 83.7155 108.894 83.8289 109.234 83.8289C109.575 83.8289 109.853 83.8226 110.067 83.8101C110.281 83.7975 110.496 83.7786 110.711 83.7533C111.252 83.6903 111.663 83.5895 111.939 83.4508C112.482 83.1989 112.753 82.6318 112.753 81.7497C112.753 80.8549 112.621 80.1871 112.356 79.746C112.558 79.5696 112.873 79.4814 113.302 79.4814C114.147 79.4814 114.759 79.9161 115.138 80.7857C115.276 81.1007 115.346 81.4346 115.346 81.7874C115.346 82.1278 115.269 82.5121 115.118 82.9405C115.636 83.5328 115.894 84.2385 115.894 85.0576C115.894 85.864 115.636 86.5635 115.118 87.1558C115.269 87.5842 115.346 87.9748 115.346 88.3277C115.346 88.6679 115.276 88.9956 115.138 89.3106C114.998 89.6256 114.828 89.8777 114.626 90.0667C114.235 90.4196 113.794 90.596 113.302 90.596C112.949 90.596 112.634 90.4952 112.356 90.2936C112.621 89.8525 112.753 89.3359 112.753 88.7436C112.753 87.5716 112.432 86.847 111.789 86.5698C111.246 86.3556 110.597 86.2484 109.84 86.2484C109.096 86.2484 108.522 86.3619 108.118 86.5887V96.5692C108.598 97.5647 109.499 98.0625 110.824 98.0625C111.252 98.0625 111.605 97.9554 111.883 97.7411C112.021 97.9302 112.091 98.1506 112.091 98.4027C112.091 98.6421 112.016 98.869 111.864 99.0831C111.726 99.2974 111.523 99.4801 111.259 99.6314C110.691 99.9842 110.01 100.161 109.216 100.161C108.434 100.161 107.677 99.9653 106.945 99.5747ZM102.973 94.7735C103.603 94.534 103.956 93.7086 104.032 92.2972C104.095 90.8859 104.127 88.9326 104.127 86.4374C104.127 83.9424 104.12 82.2853 104.108 81.4661C104.108 80.6345 104.101 79.9665 104.089 79.4625C104.051 77.9755 103.906 77.0808 103.654 76.7783C103.414 76.4633 103.187 76.2554 102.973 76.1546C102.973 80.5399 102.897 83.0351 102.745 83.6399C102.569 84.144 102.14 84.5031 101.459 84.7174C102.216 84.982 102.645 85.3034 102.745 85.6813C102.897 86.2862 102.973 88.4978 102.973 92.3161V94.7735ZM123.84 99.6502C123.372 99.9905 122.837 100.161 122.231 100.161C121.639 100.161 121.166 100.009 120.812 99.7069C120.447 99.3919 120.264 99.0328 120.264 98.6295C120.264 98.2263 120.327 97.9302 120.453 97.7411C120.819 97.9554 121.267 98.0625 121.796 98.0625C122.339 98.0625 122.743 97.9931 123.007 97.8545C123.285 97.7033 123.55 97.5017 123.802 97.2496L126.488 89.2917L126.866 87.9875C126.98 87.5968 127.037 87.2377 127.037 86.91C127.037 85.7633 126.494 85.0324 125.409 84.7174C126.406 84.3393 127.106 83.9298 127.509 83.4887C128.14 82.7956 128.638 81.882 129.004 80.7478L131.085 73.7728C130.682 73.2309 130.203 72.9601 129.647 72.9601C129.092 72.9601 128.575 73.0797 128.096 73.3192C127.97 73.0924 127.907 72.8403 127.907 72.5631C127.907 72.2733 127.963 72.0023 128.077 71.7503C128.203 71.4983 128.374 71.2778 128.588 71.0887C129.067 70.6855 129.749 70.4838 130.631 70.4838C131.514 70.4838 132.265 70.7485 132.883 71.2778C133.513 70.7485 134.295 70.4838 135.228 70.4838C136.174 70.4838 136.924 70.7359 137.48 71.2399C138.287 70.7359 139.106 70.4838 139.939 70.4838C140.771 70.4838 141.414 70.6413 141.868 70.9564C142.335 71.2714 142.569 71.6999 142.569 72.2418C142.569 72.4938 142.493 72.7143 142.342 72.9033C142.052 72.6891 141.711 72.582 141.32 72.582C140.476 72.582 139.926 73.1554 139.674 74.3022L142.096 82.0332C142.398 83.0035 143.156 83.7596 144.366 84.3015C144.707 84.4527 145.053 84.5913 145.406 84.7174C144.145 85.1332 143.514 85.757 143.514 86.5887C143.514 86.9037 143.565 87.1809 143.666 87.4204L147.279 97.0984C147.834 97.6781 148.395 97.9679 148.963 97.9679C149.531 97.9679 149.972 97.8608 150.287 97.6466C150.426 97.7474 150.495 97.9365 150.495 98.2136C150.495 98.4909 150.452 98.7492 150.363 98.9887C150.275 99.2155 150.136 99.4172 149.947 99.5936C149.543 99.9716 148.951 100.161 148.168 100.161C147.387 100.161 146.706 99.9464 146.126 99.5179C145.469 99.9464 144.725 100.161 143.893 100.161C143.074 100.161 142.367 99.9527 141.774 99.5368C141.206 99.9527 140.539 100.161 139.769 100.161C139 100.161 138.362 100.003 137.858 99.688C137.354 99.3604 137.088 98.9004 137.064 98.3082C137.064 97.9554 137.132 97.7348 137.272 97.6466C137.612 97.8608 137.959 97.9679 138.312 97.9679C139.056 97.9679 139.58 97.8167 139.882 97.5143L138.444 92.6942H128.21L126.961 96.8716C127.478 97.6655 128.103 98.0625 128.834 98.0625C129.578 98.0625 130.133 97.9554 130.498 97.7411C130.638 97.9679 130.706 98.283 130.706 98.6863C130.706 99.0768 130.511 99.4235 130.121 99.7259C129.73 100.016 129.225 100.161 128.607 100.161C127.989 100.161 127.422 100.003 126.904 99.688C126.45 100.003 125.926 100.161 125.334 100.161C124.754 100.161 124.256 99.9905 123.84 99.6502ZM137.669 90.1424L133.28 75.5686L128.966 90.1424H137.669ZM141.283 94.7735C141.509 94.7735 141.622 94.5214 141.622 94.0174C141.622 93.1352 141.491 92.2783 141.225 91.4465L140.507 89.235C140.002 87.5716 139.749 86.5257 139.749 86.0972C139.737 85.3915 140.046 84.9253 140.677 84.6985C139.807 84.5221 139.277 84.2511 139.087 83.8856C139 83.7344 138.924 83.6148 138.86 83.5265C138.811 83.4383 138.753 83.3375 138.69 83.2241C138.64 83.098 138.577 82.9405 138.501 82.7515C138.425 82.5624 138.325 82.2916 138.198 81.9387L137.025 78.404C136.748 77.5218 136.339 76.854 135.796 76.4003C135.632 76.2617 135.481 76.1798 135.341 76.1546C136.187 79.2041 136.742 81.1574 137.006 82.0143C138.835 87.6346 139.933 90.9677 140.298 92.0136L141.283 94.7735ZM159.86 99.5368C159.204 99.9527 158.466 100.161 157.646 100.161C156.839 100.161 156.114 99.959 155.471 99.5557C154.828 99.959 154.229 100.161 153.674 100.161C153.132 100.161 152.684 100.11 152.33 100.009C151.977 99.9212 151.668 99.7952 151.404 99.6314C150.861 99.3037 150.59 98.8941 150.59 98.4027C150.59 98.1506 150.66 97.9302 150.798 97.7411C151.076 97.9554 151.429 98.0625 151.858 98.0625C152.98 98.0625 153.756 97.5836 154.185 96.6259V87.3826C154.185 86.8029 154.065 86.3745 153.825 86.0972C153.446 85.631 152.798 85.171 151.877 84.7174C152.734 84.3267 153.289 83.9802 153.541 83.6777C153.97 83.1863 154.185 82.6318 154.185 82.0143V74.0375C153.756 73.0671 152.98 72.582 151.858 72.582C151.429 72.582 151.076 72.6891 150.798 72.9033C150.66 72.7143 150.59 72.5001 150.59 72.2607C150.59 72.0086 150.66 71.7755 150.798 71.5612C150.95 71.347 151.151 71.1643 151.404 71.0131C151.984 70.6602 152.646 70.4838 153.39 70.4838C154.147 70.4838 154.84 70.6918 155.471 71.1076C156.127 70.6918 156.852 70.4838 157.646 70.4838C158.454 70.4838 159.179 70.6855 159.823 71.0887C161.071 70.5595 162.477 70.2948 164.041 70.2948C165.618 70.2948 166.979 70.4775 168.127 70.843C169.275 71.2084 170.309 71.7187 171.23 72.3741C173.147 73.7351 174.415 75.5308 175.033 77.7613C175.285 78.6307 175.884 79.3428 176.83 79.8973C175.858 80.4391 175.209 81.2582 174.881 82.3545C174.553 83.4508 174.004 84.4716 173.235 85.4167C172.479 86.3493 171.609 87.1306 170.625 87.7606C168.62 89.046 166.488 89.6887 164.231 89.6887C163.246 89.6887 162.218 89.5627 161.146 89.3106V96.5313C161.487 97.2622 162.187 97.7411 163.246 97.9679C163.524 98.0309 163.833 98.0625 164.173 98.0625C164.514 98.0625 164.823 97.9554 165.101 97.7411C165.239 97.9302 165.309 98.1506 165.309 98.4027C165.309 98.6421 165.214 98.869 165.024 99.0831C164.848 99.2974 164.608 99.4801 164.306 99.6314C163.637 99.9842 162.906 100.161 162.112 100.161C161.317 100.161 160.566 99.9527 159.86 99.5368ZM161.146 84.3771C161.146 85.234 161.462 85.9208 162.093 86.4374C162.673 86.9163 163.417 87.1558 164.325 87.1558C165.712 87.1558 166.715 86.6264 167.332 85.5679C167.547 85.2025 167.655 84.7551 167.655 84.2259V75.682C167.655 74.7747 167.308 74.0627 166.614 73.5461C165.983 73.0671 165.353 72.8278 164.722 72.8278C164.104 72.8278 163.593 72.8907 163.19 73.0168C162.799 73.1302 162.452 73.3066 162.149 73.5461C161.481 74.0753 161.146 74.8125 161.146 75.7576V84.3771ZM168.884 86.3241C169.174 86.2736 169.471 85.9208 169.773 85.2656C170.089 84.6102 170.322 83.8415 170.473 82.9594C170.637 82.0647 170.839 81.4094 171.078 80.9936C171.319 80.5651 171.703 80.2627 172.233 80.0863C171.363 79.7964 170.814 79.0277 170.587 77.7802C170.36 76.52 170.089 75.5938 169.773 75.0015C169.471 74.4092 169.174 74.0879 168.884 74.0375C169.35 75.0834 169.584 77.0997 169.584 80.0863C169.584 82.0773 169.483 83.5769 169.282 84.585C169.079 85.5932 168.948 86.1729 168.884 86.3241ZM156.001 94.7735C156.631 94.534 156.979 93.7086 157.042 92.2972C157.117 90.8859 157.155 88.9326 157.155 86.4374C157.155 83.9424 157.148 82.2853 157.136 81.4661C157.136 80.6345 157.129 79.9665 157.117 79.4625C157.079 77.9755 156.934 77.0808 156.682 76.7783C156.442 76.4633 156.215 76.2554 156.001 76.1546C156.001 80.5399 155.925 83.0351 155.774 83.6399C155.597 84.144 155.169 84.5031 154.487 84.7174C155.244 84.982 155.672 85.3034 155.774 85.6813C155.925 86.2862 156.001 88.4978 156.001 92.3161V94.7735ZM184.625 100.161C183.792 100.161 183.054 99.959 182.411 99.5557C181.768 99.959 181.169 100.161 180.613 100.161C180.072 100.161 179.623 100.11 179.27 100.009C178.917 99.9212 178.608 99.7952 178.344 99.6314C177.801 99.3037 177.53 98.8941 177.53 98.4027C177.53 98.1506 177.6 97.9302 177.738 97.7411C178.015 97.9554 178.368 98.0625 178.798 98.0625C179.92 98.0625 180.696 97.5836 181.124 96.6259V87.3826C181.124 86.8029 181.005 86.3745 180.765 86.0972C180.386 85.631 179.737 85.171 178.816 84.7174C179.674 84.3267 180.229 83.9802 180.481 83.6777C180.91 83.1863 181.124 82.6318 181.124 82.0143V74.0375C180.696 73.0671 179.92 72.582 178.798 72.582C178.368 72.582 178.015 72.6891 177.738 72.9033C177.6 72.7143 177.53 72.5001 177.53 72.2607C177.53 72.0086 177.6 71.7755 177.738 71.5612C177.89 71.347 178.091 71.1643 178.344 71.0131C178.924 70.6602 179.586 70.4838 180.33 70.4838C181.087 70.4838 181.78 70.6918 182.411 71.1076C183.066 70.6918 183.817 70.4838 184.662 70.4838C185.507 70.4838 186.276 70.7296 186.971 71.221C188.307 70.7296 189.852 70.4838 191.605 70.4838C192.904 70.4838 194.014 70.6098 194.935 70.8619L196.619 71.3156C196.821 71.3659 197.015 71.3911 197.205 71.3911C197.558 71.3911 197.735 71.1392 197.735 70.635C197.735 70.509 197.691 70.2948 197.602 69.9924C197.955 69.9294 198.404 69.8978 198.946 69.8978C199.487 69.8978 199.948 70.0806 200.326 70.446C200.705 70.7988 200.894 71.3156 200.894 71.996C200.894 72.6639 200.775 73.1554 200.535 73.4704C200.875 73.9744 201.046 74.592 201.046 75.3228C201.046 76.0411 200.799 76.646 200.308 77.1374C200.459 77.5155 200.535 77.8872 200.535 78.2527C200.535 78.6055 200.471 78.9332 200.345 79.2356C200.232 79.5255 200.087 79.7712 199.91 79.9728C199.557 80.3383 199.197 80.521 198.832 80.521C198.302 80.521 197.823 80.4076 197.394 80.1808C197.546 79.8784 197.621 79.431 197.621 78.8387C197.621 77.4526 197.274 76.2364 196.58 75.1906C195.635 73.754 194.216 73.0356 192.324 73.0356C191.365 73.0356 190.495 73.2688 189.714 73.7351C188.944 74.2013 188.402 74.8692 188.086 75.7387V83.054C188.528 83.3312 188.938 83.4697 189.316 83.4697C189.707 83.4697 189.997 83.4634 190.186 83.4508C190.388 83.4383 190.59 83.4131 190.792 83.3753C191.309 83.2996 191.706 83.1989 191.983 83.0728C192.513 82.8208 192.778 82.2033 192.778 81.2204C192.778 80.6659 192.646 80.2375 192.38 79.935C192.633 79.7586 192.948 79.6704 193.327 79.6704C194.172 79.6704 194.784 80.0107 195.162 80.6911C195.301 80.9306 195.37 81.1952 195.37 81.485C195.37 81.7748 195.294 82.1341 195.142 82.5624C195.66 83.1547 195.918 83.8604 195.918 84.6796C195.918 85.4861 195.66 86.1855 195.142 86.7778C195.294 87.2061 195.37 87.5968 195.37 87.9496C195.37 88.2899 195.301 88.6176 195.162 88.9326C195.023 89.2476 194.852 89.4997 194.651 89.6887C194.26 90.0415 193.818 90.2179 193.327 90.2179C192.974 90.2179 192.658 90.1172 192.38 89.9155C192.646 89.4744 192.778 88.9578 192.778 88.3655C192.778 87.1935 192.457 86.4689 191.814 86.1918C191.246 85.9649 190.596 85.8515 189.864 85.8515C189.134 85.8515 188.54 85.9838 188.086 86.2484V95.6997C188.818 96.985 190.231 97.6277 192.324 97.6277C194.695 97.6277 196.309 96.8968 197.167 95.435C198.163 93.759 198.661 91.9633 198.661 90.0478C198.661 89.4934 198.612 89.0649 198.51 88.7625C198.825 88.4475 199.154 88.2899 199.494 88.2899C199.835 88.2899 200.093 88.3403 200.27 88.4412C200.446 88.5293 200.604 88.6428 200.743 88.7814C201.046 89.1216 201.197 89.4681 201.197 89.821L201.084 90.7472C201.084 90.9867 201.147 91.182 201.273 91.3332C201.524 91.5979 201.65 91.8498 201.65 92.0893C201.65 92.3161 201.575 92.5933 201.423 92.921C201.713 93.0849 201.973 93.3305 202.199 93.6582C202.439 93.9732 202.559 94.3009 202.559 94.6411C202.559 95.3594 202.256 96.0021 201.65 96.5692C201.916 96.9472 202.048 97.4954 202.048 98.2136C202.048 98.9193 201.84 99.5179 201.423 100.009C201.02 100.513 200.49 100.765 199.835 100.765C199.482 100.765 199.115 100.728 198.738 100.652C198.788 100.375 198.813 100.098 198.813 99.8204C198.813 99.2407 198.549 98.9508 198.018 98.9508C197.426 98.9508 196.833 99.0706 196.24 99.31C194.84 99.8771 193.245 100.161 191.454 100.161C189.676 100.161 188.162 99.9275 186.913 99.4612C186.258 99.9275 185.495 100.161 184.625 100.161ZM182.941 94.7735C183.571 94.534 183.919 93.7086 183.98 92.2972C184.057 90.8859 184.095 88.9326 184.095 86.4374C184.095 83.9424 184.088 82.2853 184.076 81.4661C184.076 80.6345 184.069 79.9665 184.057 79.4625C184.019 77.9755 183.874 77.0808 183.622 76.7783C183.382 76.4633 183.155 76.2554 182.941 76.1546C182.941 80.5399 182.865 83.0351 182.713 83.6399C182.537 84.144 182.109 84.5031 181.427 84.7174C182.184 84.982 182.612 85.3034 182.713 85.6813C182.865 86.2862 182.941 88.4978 182.941 92.3161V94.7735ZM187.708 94.5844C187.708 94.6222 187.714 94.6537 187.727 94.6789L187.708 94.5844Z" fill="white"/>
<path d="M256.16 70C258.254 70 259.951 71.4647 259.951 73.2716C259.951 75.0785 258.254 76.5432 256.16 76.5432C254.066 76.5432 252.369 75.0785 252.369 73.2716C252.369 71.4647 254.066 70 256.16 70Z" fill="#999591"/>
<path d="M14.7911 70C16.8849 70 18.5823 71.4647 18.5823 73.2716C18.5823 75.0785 16.8849 76.5432 14.7911 76.5432C12.6974 76.5432 11 75.0785 11 73.2716C11 71.4647 12.6974 70 14.7911 70Z" fill="#999591"/>
<path d="M269 119.967H0V122.148H269V119.967Z" fill="#FF9000"/>
<path d="M84.1662 143.344C82.9325 143.344 81.8687 143.086 80.975 142.567C80.0872 142.049 79.4039 141.32 78.9254 140.381C78.4468 139.437 78.2075 138.331 78.2075 137.063V136.691C78.2075 135.47 78.4411 134.386 78.908 133.442C79.375 132.497 80.0439 131.754 80.9145 131.213C81.7851 130.671 82.8229 130.4 84.0278 130.4C84.8755 130.4 85.6653 130.524 86.3976 130.772C87.1298 131.014 87.7756 131.371 88.3348 131.844V134.817H86.5619L86.3198 132.889C86.1295 132.751 85.919 132.633 85.6883 132.535C85.4635 132.436 85.2157 132.362 84.9447 132.31C84.6794 132.258 84.3912 132.233 84.0798 132.233C83.3418 132.233 82.7104 132.416 82.1858 132.786C81.6611 133.149 81.2575 133.661 80.975 134.323C80.6982 134.986 80.5599 135.769 80.5599 136.674V137.063C80.5599 137.979 80.7069 138.771 81.001 139.439C81.295 140.107 81.713 140.623 82.255 140.986C82.8027 141.343 83.4542 141.522 84.2095 141.522C84.5843 141.522 84.9562 141.482 85.3251 141.401C85.6942 141.315 86.0228 141.202 86.3111 141.064L86.5619 139.292H88.3175V142.238C87.8333 142.556 87.2336 142.82 86.5186 143.034C85.8037 143.241 85.0196 143.344 84.1662 143.344ZM94.0514 143.344C93.1347 143.344 92.3506 143.143 91.699 142.74C91.0475 142.337 90.546 141.778 90.1943 141.064C89.8426 140.344 89.6667 139.517 89.6667 138.584V138.402C89.6667 137.474 89.8426 136.654 90.1943 135.939C90.546 135.225 91.0475 134.663 91.699 134.255C92.3506 133.845 93.1289 133.641 94.0341 133.641C94.945 133.641 95.7264 133.845 96.3778 134.255C97.0293 134.657 97.5281 135.216 97.874 135.93C98.2257 136.645 98.4015 137.469 98.4015 138.402V138.584C98.4015 139.517 98.2257 140.344 97.874 141.064C97.5281 141.778 97.0293 142.337 96.3778 142.74C95.7264 143.143 94.9508 143.344 94.0514 143.344ZM94.0514 141.539C94.5069 141.539 94.8816 141.415 95.1757 141.168C95.4755 140.92 95.6975 140.574 95.8416 140.13C95.9857 139.681 96.0578 139.166 96.0578 138.584V138.402C96.0578 137.826 95.9857 137.316 95.8416 136.873C95.6975 136.429 95.4755 136.083 95.1757 135.835C94.8759 135.582 94.4954 135.456 94.0341 135.456C93.5728 135.456 93.1923 135.582 92.8926 135.835C92.5984 136.083 92.3794 136.429 92.2352 136.873C92.0911 137.316 92.019 137.826 92.019 138.402V138.584C92.019 139.171 92.0911 139.687 92.2352 140.13C92.3794 140.574 92.6013 140.92 92.9012 141.168C93.201 141.415 93.5844 141.539 94.0514 141.539ZM99.7075 143.163V141.746L100.961 141.487V135.499L99.6124 135.239V133.813H103.141L103.245 134.98L103.262 135.179C103.498 134.678 103.792 134.298 104.144 134.038C104.496 133.774 104.911 133.641 105.389 133.641C105.545 133.641 105.712 133.655 105.891 133.684C106.076 133.707 106.231 133.739 106.358 133.779L106.09 135.948L104.853 135.878C104.479 135.862 104.17 135.93 103.928 136.086C103.692 136.242 103.487 136.464 103.314 136.752V141.487L104.568 141.746V143.163H99.7075ZM110.994 143.337C110.163 143.337 109.518 143.105 109.056 142.645C108.601 142.179 108.373 141.441 108.373 140.433V135.481H107.05V133.813H108.373V131.533H110.717V133.813H112.507V135.481H110.717V140.433C110.717 140.813 110.798 141.087 110.959 141.254C111.12 141.421 111.337 141.504 111.607 141.504C111.758 141.504 111.922 141.493 112.101 141.47C112.279 141.446 112.429 141.423 112.55 141.401L112.775 143.068C112.516 143.143 112.227 143.206 111.911 143.258C111.598 143.31 111.293 143.337 110.994 143.337ZM117.973 143.344C117.085 143.344 116.31 143.149 115.647 142.757C114.989 142.36 114.479 141.816 114.116 141.124C113.753 140.427 113.571 139.632 113.571 138.739V138.385C113.571 137.469 113.744 136.654 114.089 135.939C114.441 135.219 114.932 134.657 115.56 134.255C116.188 133.845 116.915 133.641 117.739 133.641C118.587 133.641 119.299 133.811 119.875 134.151C120.452 134.485 120.887 134.966 121.182 135.594C121.475 136.221 121.622 136.977 121.622 137.858V139.162H116.01L115.992 139.214C116.015 139.663 116.116 140.064 116.295 140.415C116.474 140.762 116.725 141.035 117.047 141.236C117.37 141.438 117.762 141.539 118.224 141.539C118.714 141.539 119.16 141.475 119.564 141.349C119.974 141.222 120.363 141.035 120.731 140.787L121.406 142.247C121.031 142.559 120.556 142.82 119.98 143.034C119.403 143.241 118.734 143.344 117.973 143.344ZM116.035 137.564H119.408V137.34C119.408 136.948 119.351 136.607 119.236 136.32C119.121 136.026 118.941 135.799 118.7 135.637C118.463 135.476 118.154 135.395 117.774 135.395C117.428 135.395 117.131 135.49 116.883 135.68C116.635 135.864 116.439 136.118 116.295 136.44C116.15 136.758 116.056 137.117 116.01 137.521L116.035 137.564ZM131.179 143.344C130.343 143.344 129.617 143.195 128.999 142.895C128.383 142.59 127.905 142.17 127.564 141.634C127.229 141.098 127.062 140.479 127.062 139.776C127.062 139.114 127.238 138.541 127.59 138.056C127.948 137.566 128.487 137.069 129.207 136.562C129.236 136.544 129.265 136.527 129.294 136.51C129.323 136.487 129.348 136.467 129.371 136.449C128.968 135.907 128.665 135.418 128.464 134.98C128.268 134.537 128.169 134.088 128.169 133.632C128.169 132.97 128.307 132.397 128.584 131.913C128.861 131.429 129.253 131.057 129.761 130.798C130.268 130.533 130.862 130.4 131.542 130.4C132.153 130.4 132.69 130.531 133.151 130.789C133.618 131.043 133.981 131.386 134.241 131.818C134.506 132.249 134.638 132.731 134.638 133.26C134.638 133.826 134.494 134.338 134.206 134.799C133.923 135.254 133.526 135.663 133.012 136.026L132.182 136.622L134.682 139.561C134.89 139.209 135.054 138.828 135.174 138.419C135.296 138.004 135.356 137.566 135.356 137.106H137.163C137.163 137.889 137.063 138.613 136.861 139.275C136.66 139.938 136.353 140.528 135.945 141.046L137.7 143.12L137.683 143.163H135.054L134.379 142.369C133.894 142.691 133.387 142.936 132.857 143.103C132.333 143.265 131.772 143.344 131.179 143.344ZM131.283 141.539C131.612 141.539 131.937 141.493 132.261 141.401C132.588 141.308 132.903 141.173 133.203 140.994L130.487 137.832L130.288 137.97C129.948 138.275 129.718 138.569 129.596 138.852C129.475 139.128 129.414 139.401 129.414 139.672C129.414 140.214 129.582 140.66 129.916 141.012C130.257 141.363 130.712 141.539 131.283 141.539ZM131.093 135.325L131.932 134.772C132.254 134.566 132.473 134.35 132.588 134.125C132.704 133.894 132.762 133.644 132.762 133.373C132.762 133.068 132.647 132.8 132.416 132.569C132.191 132.334 131.896 132.215 131.533 132.215C131.141 132.215 130.839 132.35 130.626 132.621C130.412 132.887 130.306 133.215 130.306 133.607C130.306 133.871 130.369 134.142 130.496 134.418C130.629 134.695 130.827 134.998 131.093 135.325ZM142.578 143.163V141.746L143.935 141.487V132.267L142.578 132.007V130.582H143.935H148.138C149.586 130.582 150.715 130.87 151.529 131.446C152.341 132.016 152.748 132.874 152.748 134.021C152.748 134.598 152.587 135.113 152.264 135.568C151.946 136.023 151.497 136.363 150.915 136.587C151.416 136.697 151.837 136.893 152.178 137.175C152.517 137.458 152.774 137.8 152.947 138.203C153.126 138.607 153.215 139.047 153.215 139.525C153.215 140.717 152.82 141.622 152.03 142.238C151.247 142.855 150.145 143.163 148.727 143.163H142.578ZM146.287 141.358H148.727C149.419 141.358 149.946 141.202 150.309 140.891C150.679 140.579 150.863 140.125 150.863 139.525C150.863 139.099 150.794 138.739 150.655 138.446C150.523 138.146 150.312 137.918 150.023 137.763C149.741 137.607 149.378 137.53 148.934 137.53H146.287V141.358ZM146.287 135.871H148.303C148.966 135.871 149.479 135.724 149.842 135.429C150.212 135.136 150.395 134.715 150.395 134.168C150.395 133.563 150.206 133.117 149.825 132.829C149.444 132.54 148.882 132.397 148.138 132.397H146.287V135.871ZM157.314 143.344C156.374 143.344 155.634 143.1 155.092 142.61C154.555 142.114 154.288 141.437 154.288 140.579C154.288 139.992 154.446 139.476 154.764 139.033C155.086 138.584 155.558 138.235 156.182 137.988C156.81 137.734 157.574 137.607 158.473 137.607H159.805V136.873C159.805 136.401 159.664 136.02 159.382 135.732C159.105 135.444 158.696 135.3 158.153 135.3C157.86 135.3 157.594 135.338 157.357 135.413C157.127 135.481 156.92 135.582 156.735 135.715L156.536 136.968H154.823L154.807 134.6C155.279 134.312 155.799 134.081 156.363 133.909C156.934 133.73 157.569 133.641 158.266 133.641C159.471 133.641 160.419 133.923 161.111 134.488C161.808 135.047 162.157 135.85 162.157 136.898V140.882C162.157 141.008 162.157 141.132 162.157 141.254C162.164 141.374 162.175 141.493 162.193 141.608L163.152 141.746V143.163H160.169C160.105 142.985 160.045 142.803 159.986 142.619C159.935 142.429 159.898 142.238 159.875 142.049C159.569 142.435 159.203 142.748 158.776 142.99C158.355 143.227 157.868 143.344 157.314 143.344ZM157.894 141.574C158.292 141.574 158.664 141.482 159.01 141.297C159.361 141.112 159.627 140.879 159.805 140.597V139.076H158.464C157.86 139.076 157.402 139.218 157.089 139.5C156.784 139.776 156.631 140.105 156.631 140.485C156.631 140.83 156.741 141.098 156.96 141.288C157.179 141.478 157.49 141.574 157.894 141.574ZM164.294 143.163V141.746L165.548 141.487V135.499L164.198 135.239V133.813H167.728L167.831 134.98L167.848 135.179C168.085 134.678 168.379 134.298 168.731 134.038C169.083 133.774 169.498 133.641 169.976 133.641C170.132 133.641 170.299 133.655 170.477 133.684C170.662 133.707 170.817 133.739 170.945 133.779L170.677 135.948L169.439 135.878C169.065 135.862 168.756 135.93 168.515 136.086C168.278 136.242 168.073 136.464 167.9 136.752V141.487L169.155 141.746V143.163H164.294ZM177.128 143.344C176.546 143.344 176.044 143.233 175.623 143.008C175.208 142.777 174.859 142.443 174.577 142.006L174.404 143.163H172.371V131.368L171.013 131.109V129.683H174.715V134.833C174.992 134.447 175.332 134.154 175.736 133.952C176.14 133.745 176.609 133.641 177.145 133.641C177.906 133.641 178.552 133.845 179.082 134.255C179.613 134.663 180.016 135.239 180.293 135.982C180.575 136.72 180.717 137.587 180.717 138.584V138.765C180.717 139.687 180.575 140.493 180.293 141.184C180.016 141.87 179.61 142.403 179.074 142.784C178.543 143.157 177.895 143.344 177.128 143.344ZM176.436 141.504C177.116 141.504 177.61 141.265 177.915 140.787C178.221 140.303 178.374 139.629 178.374 138.765V138.584C178.374 137.95 178.304 137.403 178.165 136.941C178.034 136.481 177.826 136.124 177.543 135.871C177.261 135.611 176.897 135.481 176.453 135.481C176.044 135.481 175.696 135.58 175.407 135.776C175.119 135.971 174.888 136.233 174.715 136.562V140.511C174.9 140.827 175.136 141.072 175.425 141.245C175.712 141.418 176.05 141.504 176.436 141.504ZM185.024 143.344C184.085 143.344 183.343 143.1 182.802 142.61C182.265 142.114 181.997 141.437 181.997 140.579C181.997 139.992 182.155 139.476 182.473 139.033C182.796 138.584 183.269 138.235 183.891 137.988C184.52 137.734 185.283 137.607 186.183 137.607H187.515V136.873C187.515 136.401 187.373 136.02 187.091 135.732C186.814 135.444 186.405 135.3 185.862 135.3C185.569 135.3 185.303 135.338 185.068 135.413C184.836 135.481 184.629 135.582 184.444 135.715L184.246 136.968H182.534L182.516 134.6C182.989 134.312 183.508 134.081 184.072 133.909C184.644 133.73 185.278 133.641 185.975 133.641C187.181 133.641 188.128 133.923 188.82 134.488C189.519 135.047 189.868 135.85 189.868 136.898V140.882C189.868 141.008 189.868 141.132 189.868 141.254C189.873 141.374 189.884 141.493 189.902 141.608L190.862 141.746V143.163H187.878C187.814 142.985 187.754 142.803 187.697 142.619C187.645 142.429 187.607 142.238 187.584 142.049C187.278 142.435 186.912 142.748 186.486 142.99C186.065 143.227 185.578 143.344 185.024 143.344ZM185.603 141.574C186.001 141.574 186.373 141.482 186.719 141.297C187.071 141.112 187.336 140.879 187.515 140.597V139.076H186.175C185.569 139.076 185.111 139.218 184.8 139.5C184.493 139.776 184.34 140.105 184.34 140.485C184.34 140.83 184.45 141.098 184.669 141.288C184.888 141.478 185.199 141.574 185.603 141.574Z" fill="#999591"/>
</svg>
